<svg width="235" height="331" viewBox="0 0 235 331" fill="none" xmlns="http://www.w3.org/2000/svg">
<path d="M85.7197 329.922C84.3877 317.145 84.0517 303.338 80.1467 291C77.4017 282.328 70.0237 276.734 64.7157 269.729C58.0197 260.891 51.9267 251.58 45.7417 242.383C41.0087 235.344 35.2447 228.422 31.6447 220.719C28.7577 214.542 27.2277 207.838 25.1337 201.378C22.7047 193.885 19.6687 186.605 16.2077 179.533C13.4817 173.963 9.31667 168.297 8.54167 162.05C8.13268 158.76 8.47766 155.442 8.47766 152.141C8.47766 147.062 7.05466 143.004 4.96266 138.49C2.18866 132.504 -5.93533 114.409 7.57066 115.262C18.4577 115.95 27.3837 127.185 32.9777 135.327C36.3877 140.289 39.5287 145.86 40.4957 151.888C41.0567 155.387 41.5527 157.564 43.3717 160.656C47.1757 167.121 49.3547 174.512 53.3537 180.833C56.0077 185.027 61.2777 185.186 64.8487 188.453C64.1367 188.328 63.4237 188.202 62.7117 188.077C65.6227 179.603 69.6107 170.724 70.7207 161.801C72.2907 149.172 73.7337 136.709 72.8727 123.965C71.8847 109.339 70.6117 94.8839 70.5637 80.1999C70.5247 68.0689 70.3077 55.9429 70.0217 43.8159C69.8427 36.2339 68.8987 27.0799 73.2037 20.3899C76.7387 14.8949 84.3937 14.0209 89.7337 17.4659C96.1637 21.6139 96.7887 30.7119 97.6497 37.5789C99.2357 50.2159 98.9537 63.2479 101.297 75.7659C102.484 82.1049 104.355 88.1789 105.075 94.6159C105.724 100.416 105.928 106.247 106.173 112.074C106.401 117.501 105.678 123.692 107.134 128.939C107.626 130.711 107.937 132.313 109.538 132.859C110.619 133.227 115.689 133.472 116.523 132.791C117.453 132.031 117.263 129.33 117.339 128.319C117.536 125.708 117.707 123.094 117.85 120.479C118.121 115.523 118.302 110.561 118.461 105.6C118.79 95.3589 118.479 85.1329 119.825 74.9619C121.313 63.7219 122.178 52.1919 122.076 40.8479C122.013 33.8259 122.175 27.1459 123.04 20.1509C123.693 14.8689 123.81 9.65186 127.141 5.21586C131.865 -1.07314 141.293 -1.63413 147.278 3.31187C150.872 6.28187 151.707 10.6069 151.57 15.0479C151.401 20.5129 151.191 25.9699 151.13 31.4399C151.017 41.5049 150.808 51.6109 150.999 61.6739C151.127 68.4199 152.151 75.0449 152.512 81.7699C152.938 89.7189 151.886 97.2808 150.742 105.118C149.787 111.664 149.153 118.2 149.124 124.816C149.117 126.526 148.215 131.325 149.135 132.814C150.389 134.844 150.641 131.191 150.867 130.146C153.834 116.436 154.832 102.587 159.038 89.1148C160.722 83.7198 162.815 78.5899 163.926 73.0309C165.036 67.4749 165.753 61.8419 166.45 56.2219C167.661 46.4589 168.73 36.5999 170.577 26.9309C172.123 18.8379 176.209 12.8249 185.184 13.7729C192.392 14.5339 196.462 19.2829 197.083 26.4129C197.824 34.9249 195.837 44.1479 194.641 52.5499C193.141 63.0829 191.975 73.5299 191.165 84.1349C190.519 92.5949 189.683 100.758 187.8 109.022C185.303 119.985 182.884 130.93 181.291 142.068C180.989 144.177 180.197 146.862 180.442 148.999C180.604 150.413 183.017 153.599 184.702 152.642C185.455 152.214 185.894 149.173 186.126 148.409C187.286 144.594 188.11 140.682 189.127 136.828C190.489 131.665 191.918 126.323 194.415 121.572C196.523 117.562 198.583 113.871 200.074 109.543C203.849 98.5819 206.173 87.1859 209.741 76.1609C212.176 68.6359 215.921 58.2649 225.724 60.2999C234.56 62.1349 235.451 71.8269 234.754 79.3509C233.39 94.0669 227.614 108.376 224.153 122.687C221.425 133.966 218.231 144.99 214.458 155.971C210.403 167.771 210.48 179.994 208.525 192.216C206.935 202.153 206.133 212.127 204.777 222.095C203.35 232.59 200.425 242.521 197.113 252.552C193.663 263 190.007 273.39 186.108 283.679C182.755 292.526 182.187 301.144 182.575 310.578C182.847 317.204 183.427 323.85 184.377 330.415C184.458 330.978 182.244 330.585 182.164 330.03C180.112 315.843 177.787 299.028 182.998 285.355C190.02 266.932 197.976 247.735 201.486 228.258C203.303 218.177 203.577 207.913 205.251 197.828C206.157 192.367 207.117 186.91 207.705 181.403C208.421 174.702 208.43 167.968 210.229 161.42C213.031 151.219 217.108 141.398 219.79 131.139C223.304 117.698 226.903 104.24 230.268 90.7579C231.75 84.8209 233.078 78.6599 232.656 72.4999C232.173 65.4539 226.186 56.3369 218.658 63.3989C214.884 66.9399 213.276 72.7149 211.751 77.4849C210.02 82.8979 208.593 88.3969 207.111 93.8819C205.638 99.3359 204.158 104.801 202.317 110.145C200.765 114.651 198.521 118.443 196.41 122.651C192.265 130.917 191.028 140.247 188.369 149.011C187.685 151.265 187.617 153.972 185.004 154.076C182.972 154.157 179.326 151.947 178.471 150.191C177.033 147.237 179.061 141.309 179.525 138.285C180.393 132.628 181.449 127.024 182.656 121.43C184.393 113.377 186.814 105.318 187.731 97.1169C188.776 87.7669 189.02 78.3409 190.076 68.9959C191.234 58.7409 192.92 48.5509 194.129 38.3009C195.184 29.3629 196.867 11.3259 181.658 14.8869C172.398 17.0549 172.56 29.8389 171.349 37.2599C169.654 47.6479 168.751 58.1429 167.076 68.5339C165.16 80.4219 160.284 91.4039 157.742 103.161C156.265 109.993 155.559 116.924 154.413 123.81C154.071 125.866 153.888 133.113 152.075 134.584C151.009 135.449 148.645 134.805 147.74 133.956C145.466 131.82 146.854 125.193 146.89 122.395C147.067 108.226 151.103 94.5079 150.226 80.2889C149.845 74.1149 148.919 68.0289 148.775 61.8349C148.645 56.2559 148.802 50.6789 148.825 45.0999C148.864 35.4329 148.795 25.7549 149.248 16.0959C149.613 8.30886 146.624 -1.33712 136.037 1.20988C129.771 2.71688 126.666 9.21187 125.91 15.0619C125.029 21.8779 123.93 28.8959 124.104 35.7809C124.252 41.6279 124.278 47.3949 123.967 53.2439C123.377 64.3319 121.218 75.4499 121.013 86.5099C120.841 95.8369 120.789 105.152 120.402 114.478C120.22 118.866 119.977 123.246 119.67 127.627C119.521 129.761 120.009 132.971 117.754 133.914C115.838 134.715 110.931 134.137 108.915 133.743C106.412 133.254 105.832 131.475 105.084 129.086C103.671 124.577 104.308 119.632 104.102 114.976C103.861 109.513 103.697 104.039 103.265 98.5859C102.278 86.1059 98.3767 74.2839 97.6237 61.7569C96.9747 50.9679 96.4867 39.8069 94.2517 29.1969C93.3797 25.0579 91.8647 19.9099 88.0117 17.5579C81.4547 13.5549 75.5217 19.1349 73.6337 24.9769C71.1607 32.6329 72.1967 41.3039 72.3757 49.2099C72.6497 61.3369 72.7127 73.4598 72.8357 85.5888C72.9787 99.7058 74.5527 113.624 75.3057 127.696C75.6047 133.292 75.8647 139.057 75.0227 144.62C74.0157 151.27 73.8767 158.167 72.6127 164.752C71.0537 172.87 67.6357 180.872 64.9537 188.681C64.7517 189.27 63.0787 188.545 62.8157 188.305C59.9467 185.68 55.8297 185.6 53.0597 182.98C49.7367 179.837 48.1457 174.474 46.3077 170.447C44.2317 165.898 41.3747 161.697 39.3387 157.171C38.2327 154.712 38.4787 151.917 37.8267 149.32C36.5207 144.121 33.7757 139.327 30.7637 134.944C26.3277 128.489 20.0197 120.321 12.4357 117.317C2.35066 113.323 0.881668 122.292 3.33067 129.672C5.34767 135.751 9.47867 141.462 10.4387 147.826C11.6337 155.745 9.54068 162.856 13.4667 170.339C16.2947 175.73 19.1117 181.108 21.5707 186.682C24.7437 193.877 27.2137 201.253 29.4697 208.778C30.9647 213.764 32.5227 218.832 35.0237 223.424C38.8737 230.493 44.0937 237.031 48.5867 243.709C54.3987 252.349 60.1497 261.068 66.3947 269.405C71.8317 276.663 79.5267 282.437 82.3587 291.386C86.2757 303.763 86.6247 317.717 87.9597 330.523C87.9937 330.838 85.7917 330.614 85.7197 329.922Z" fill="#3276FF" fill-opacity="0.2"/>
<path d="M208.375 172.929C208.444 169.669 204.602 167.024 202.294 165.278C199.33 163.035 196.17 161.064 193.045 159.057C191.77 158.239 193.687 157.798 194.462 158.296C198.141 160.658 201.881 162.972 205.277 165.738C207.434 167.495 210.69 170.075 210.625 173.18C210.603 174.183 208.358 173.73 208.375 172.929Z" fill="#3276FF" fill-opacity="0.2"/>
<path d="M226.485 102.735C221.467 102.291 216.97 100.215 212.199 98.763C210.919 98.373 211.079 97.632 212.395 98.032C216.738 99.354 220.96 101.396 225.523 101.8C226.134 101.855 227.951 102.865 226.485 102.735Z" fill="#3276FF" fill-opacity="0.2"/>
<path d="M216.235 131.968C211.174 127.953 203.532 128.189 198.658 124.067C197.676 123.236 199.893 123.209 200.458 123.687C202.811 125.677 206.97 126.422 209.79 127.495C212.638 128.578 215.624 129.675 218.035 131.588C219.035 132.381 216.81 132.424 216.235 131.968Z" fill="#3276FF" fill-opacity="0.2"/>
<path d="M190.1 60.25C186.771 59.484 183.446 59.332 180.081 58.865C176.911 58.424 173.965 56.662 170.845 56.317C170.215 56.247 168.432 55.175 169.895 55.337C173.749 55.764 177.2 57.639 181.117 58.095C184.228 58.458 187.246 58.762 190.309 59.466C191.635 59.77 191.43 60.556 190.1 60.25Z" fill="#3276FF" fill-opacity="0.2"/>
<path d="M186.779 97.8584C181.555 96.5834 176.334 96.9914 171.061 96.2594C168.522 95.9064 163.704 93.8944 161.4 95.6494C160.628 96.2374 158.656 95.1434 159.668 94.3724C161.487 92.9874 164.778 93.6134 166.735 93.8804C173.492 94.8034 180.544 94.7364 187.181 96.3564C188.573 96.6954 188.166 98.1974 186.779 97.8584Z" fill="#3276FF" fill-opacity="0.2"/>
<path d="M178.159 149.589C176.021 141.596 163.981 138.229 156.766 137.909C155.504 137.853 155.031 136.223 156.561 136.291C164.888 136.661 177.978 140.612 180.428 149.767C180.71 150.819 178.419 150.558 178.159 149.589Z" fill="#3276FF" fill-opacity="0.2"/>
<path d="M147.242 133.539C142.879 130.008 134.921 132.299 129.715 132.451C127.434 132.518 125.131 132.178 122.864 132.297C122.299 132.327 120.283 131.32 121.444 131.259C126.588 130.988 131.711 131.272 136.895 130.811C141.39 130.411 145.341 130.396 148.991 133.35C149.919 134.1 147.699 133.909 147.242 133.539Z" fill="#3276FF" fill-opacity="0.2"/>
<path d="M147.689 78.9703C141.246 75.9533 132.793 78.7823 125.99 79.1503C125.198 79.1933 123.59 78.0573 125.092 77.9763C132.621 77.5683 141.339 74.7823 148.545 78.1573C149.961 78.8193 148.654 79.4223 147.689 78.9703Z" fill="#3276FF" fill-opacity="0.2"/>
<path d="M184.156 89.1915C180.63 89.2615 177.131 89.0915 173.645 88.5335C170.999 88.1095 168.31 87.2555 165.611 87.4175C165.111 87.4475 163.053 86.5465 164.164 86.4795C166.189 86.3585 168.148 86.7275 170.13 87.1045C174.324 87.9015 178.426 88.3385 182.708 88.2535C183.204 88.2435 185.257 89.1695 184.156 89.1915Z" fill="#3276FF" fill-opacity="0.2"/>
<path d="M149.524 88.5989C145.808 87.7379 141.67 88.84 137.899 88.882C133.673 88.929 128.38 86.6019 124.469 88.7169C123.612 89.1809 121.648 88.0149 122.741 87.4239C126.799 85.2289 131.394 86.9119 135.684 87.2049C140.412 87.5269 145.258 85.9809 149.934 87.0649C151.334 87.3879 150.915 88.9209 149.524 88.5989Z" fill="#3276FF" fill-opacity="0.2"/>
<path d="M148.297 45.7053C142.519 44.6783 136.988 47.0893 131.224 45.6423C129.896 45.3093 130.132 44.3913 131.469 44.7273C136.871 46.0833 142.404 43.6803 147.937 44.6633C148.917 44.8363 149.859 45.9823 148.297 45.7053Z" fill="#3276FF" fill-opacity="0.2"/>
<path d="M97.1573 54.3253C96.6513 53.4673 89.4603 56.3052 88.1273 56.3932C83.9073 56.6702 79.7773 54.8063 75.6493 56.3553C75.0563 56.5783 73.0193 55.6702 73.8413 55.3622C79.7703 53.1382 85.9033 56.1463 92.0073 53.9263C94.3833 53.0623 97.5503 51.5382 99.2203 54.3702C99.6923 55.1712 97.4833 54.8783 97.1573 54.3253Z" fill="#3276FF" fill-opacity="0.2"/>
<path d="M100.082 84.9003C93.7308 86.0393 87.6458 87.1882 81.1578 86.7162C79.9618 86.6292 79.3728 85.1343 80.9128 85.2463C87.0548 85.6933 92.7438 84.5923 98.7548 83.5143C99.6078 83.3623 101.403 84.6633 100.082 84.9003Z" fill="#3276FF" fill-opacity="0.2"/>
<path d="M106.888 132.883C102.784 131.104 96.5361 132.869 92.3981 133.818C88.2571 134.768 84.1401 135.971 80.2391 137.665C79.3471 138.052 77.6391 136.771 78.9301 136.211C84.0891 133.971 89.6471 132.506 95.1791 131.525C99.1671 130.817 103.997 129.964 107.861 131.639C109.271 132.251 108.015 133.372 106.888 132.883Z" fill="#3276FF" fill-opacity="0.2"/>
<path d="M40.9737 158.489C34.1057 160.009 27.2297 158.276 20.3987 160.612C19.4037 160.952 17.7687 159.521 19.1157 159.06C26.1157 156.666 33.1677 158.367 40.2107 156.809C41.3457 156.559 42.4537 158.161 40.9737 158.489Z" fill="#3276FF" fill-opacity="0.2"/>
<path d="M63.8298 184.811C69.4128 177.815 77.3379 175.559 85.9859 177.004C86.8779 177.153 87.9848 178.085 86.4048 177.821C78.4008 176.484 71.1208 179.083 66.0708 185.411C65.6458 185.944 63.6698 185.012 63.8298 184.811Z" fill="#3276FF" fill-opacity="0.2"/>
<path d="M79.6675 165.552C88.2685 168.073 97.7005 169.545 105.685 173.796C109.694 175.93 112.841 179.247 116.717 181.614C121.73 184.676 127.111 187.087 132.073 190.242C142.059 196.592 150.15 206.407 157.767 215.353C157.855 215.456 155.991 215.446 155.561 214.941C148.488 206.633 140.963 197.543 131.946 191.291C124.556 186.168 116.021 183.033 108.996 177.347C100.66 170.598 89.5605 169.128 79.4995 166.18C78.2225 165.806 78.3565 165.167 79.6675 165.552Z" fill="#3276FF" fill-opacity="0.2"/>
<path d="M204.483 203.676C203.233 196.2 196.814 193.565 189.97 192.358C180.837 190.747 171.852 191.628 162.984 188.482C154.462 185.458 146.614 180.774 138.74 176.399C129.736 171.397 119.924 165.675 109.354 165.358C108.459 165.331 107.003 163.946 108.508 163.991C130.054 164.638 146.6 182.569 166.637 188.328C178.375 191.702 203.841 186.644 206.731 203.928C206.889 204.865 204.622 204.505 204.483 203.676Z" fill="#3276FF" fill-opacity="0.2"/>
<path d="M180.212 304.828C179.903 297.639 167.253 298.209 162.05 297.465C157.203 296.772 152.572 295.506 147.847 294.271C132.2 290.18 116.938 289.961 101.764 296.156C101.157 296.404 99.4401 295.482 99.6511 295.396C116.025 288.711 132.317 289.415 149.106 293.876C156.994 295.972 164.979 296.628 172.935 298.258C177.011 299.093 182.24 300.486 182.453 305.43C182.467 305.748 180.24 305.48 180.212 304.828Z" fill="#3276FF" fill-opacity="0.2"/>
</svg>
