<svg width="235" height="331" viewBox="0 0 235 331" fill="none" xmlns="http://www.w3.org/2000/svg">
<path d="M149.221 329.922C150.553 317.145 150.889 303.338 154.794 291C157.539 282.328 164.917 276.734 170.225 269.729C176.921 260.891 183.014 251.58 189.199 242.383C193.932 235.344 199.696 228.422 203.296 220.719C206.183 214.542 207.713 207.838 209.807 201.378C212.236 193.885 215.272 186.605 218.733 179.533C221.459 173.963 225.624 168.297 226.399 162.05C226.808 158.76 226.463 155.442 226.463 152.141C226.463 147.062 227.886 143.004 229.978 138.49C232.752 132.504 240.876 114.409 227.37 115.262C216.483 115.95 207.557 127.185 201.963 135.327C198.553 140.289 195.412 145.86 194.445 151.888C193.884 155.387 193.388 157.564 191.569 160.656C187.765 167.121 185.586 174.512 181.587 180.833C178.933 185.027 173.663 185.186 170.092 188.453C170.804 188.328 171.517 188.202 172.229 188.077C169.318 179.603 165.33 170.724 164.22 161.801C162.65 149.172 161.207 136.709 162.068 123.965C163.056 109.339 164.329 94.8839 164.377 80.1999C164.416 68.0689 164.633 55.9429 164.919 43.8159C165.098 36.2339 166.042 27.0799 161.737 20.3899C158.202 14.8949 150.547 14.0209 145.207 17.4659C138.777 21.6139 138.152 30.7119 137.291 37.5789C135.705 50.2159 135.987 63.2479 133.644 75.7659C132.457 82.1049 130.586 88.1789 129.866 94.6159C129.217 100.416 129.013 106.247 128.768 112.074C128.54 117.501 129.263 123.692 127.807 128.939C127.315 130.711 127.004 132.313 125.403 132.859C124.322 133.227 119.252 133.472 118.418 132.791C117.488 132.031 117.678 129.33 117.602 128.319C117.405 125.708 117.234 123.094 117.091 120.479C116.82 115.523 116.639 110.561 116.48 105.6C116.151 95.3589 116.462 85.1329 115.116 74.9619C113.628 63.7219 112.763 52.1919 112.865 40.8479C112.928 33.8259 112.766 27.1459 111.901 20.1509C111.248 14.8689 111.131 9.65186 107.8 5.21586C103.076 -1.07314 93.6478 -1.63413 87.6628 3.31187C84.0688 6.28187 83.2338 10.6069 83.3708 15.0479C83.5398 20.5129 83.7498 25.9699 83.8108 31.4399C83.9238 41.5049 84.1328 51.6109 83.9418 61.6739C83.8138 68.4199 82.7898 75.0449 82.4288 81.7699C82.0028 89.7189 83.0548 97.2808 84.1988 105.118C85.1538 111.664 85.7878 118.2 85.8168 124.816C85.8238 126.526 86.7258 131.325 85.8058 132.814C84.5518 134.844 84.2998 131.191 84.0738 130.146C81.1068 116.436 80.1088 102.587 75.9028 89.1148C74.2188 83.7198 72.1258 78.5899 71.0148 73.0309C69.9048 67.4749 69.1878 61.8419 68.4908 56.2219C67.2798 46.4589 66.2108 36.5999 64.3638 26.9309C62.8178 18.8379 58.7318 12.8249 49.7568 13.7729C42.5488 14.5339 38.4788 19.2829 37.8578 26.4129C37.1168 34.9249 39.1038 44.1479 40.2998 52.5499C41.7998 63.0829 42.9658 73.5299 43.7758 84.1349C44.4218 92.5949 45.2578 100.758 47.1408 109.022C49.6378 119.985 52.0568 130.93 53.6498 142.068C53.9518 144.177 54.7438 146.862 54.4988 148.999C54.3368 150.413 51.9238 153.599 50.2388 152.642C49.4858 152.214 49.0468 149.173 48.8148 148.409C47.6548 144.594 46.8308 140.682 45.8138 136.828C44.4518 131.665 43.0228 126.323 40.5258 121.572C38.4178 117.562 36.3578 113.871 34.8668 109.543C31.0918 98.5819 28.7678 87.1859 25.1998 76.1609C22.7648 68.6359 19.0198 58.2649 9.21676 60.2999C0.380758 62.1349 -0.510241 71.8269 0.186759 79.3509C1.55076 94.0669 7.32676 108.376 10.7878 122.687C13.5158 133.966 16.7098 144.99 20.4828 155.971C24.5378 167.771 24.4608 179.994 26.4158 192.216C28.0058 202.153 28.8078 212.127 30.1638 222.095C31.5908 232.59 34.5158 242.521 37.8278 252.552C41.2778 263 44.9338 273.39 48.8328 283.679C52.1858 292.526 52.7538 301.144 52.3658 310.578C52.0938 317.204 51.5138 323.85 50.5638 330.415C50.4828 330.978 52.6968 330.585 52.7768 330.03C54.8288 315.843 57.1538 299.028 51.9428 285.355C44.9208 266.932 36.9648 247.735 33.4548 228.258C31.6378 218.177 31.3638 207.913 29.6898 197.828C28.7838 192.367 27.8238 186.91 27.2358 181.403C26.5198 174.702 26.5108 167.968 24.7118 161.42C21.9098 151.219 17.8328 141.398 15.1508 131.139C11.6368 117.698 8.03776 104.24 4.67276 90.7579C3.19076 84.8209 1.86276 78.6599 2.28476 72.4999C2.76776 65.4539 8.75476 56.3369 16.2828 63.3989C20.0568 66.9399 21.6648 72.7149 23.1898 77.4849C24.9208 82.8979 26.3478 88.3969 27.8298 93.8819C29.3028 99.3359 30.7828 104.801 32.6238 110.145C34.1758 114.651 36.4198 118.443 38.5308 122.651C42.6758 130.917 43.9128 140.247 46.5718 149.011C47.2558 151.265 47.3238 153.972 49.9368 154.076C51.9688 154.157 55.6148 151.947 56.4698 150.191C57.9078 147.237 55.8798 141.309 55.4158 138.285C54.5478 132.628 53.4918 127.024 52.2848 121.43C50.5478 113.377 48.1268 105.318 47.2098 97.1169C46.1648 87.7669 45.9208 78.3409 44.8648 68.9959C43.7068 58.7409 42.0208 48.5509 40.8118 38.3009C39.7568 29.3629 38.0738 11.3259 53.2828 14.8869C62.5428 17.0549 62.3808 29.8389 63.5918 37.2599C65.2868 47.6479 66.1898 58.1429 67.8648 68.5339C69.7808 80.4219 74.6568 91.4039 77.1988 103.161C78.6758 109.993 79.3818 116.924 80.5278 123.81C80.8698 125.866 81.0528 133.113 82.8658 134.584C83.9318 135.449 86.2958 134.805 87.2008 133.956C89.4748 131.82 88.0868 125.193 88.0508 122.395C87.8738 108.226 83.8378 94.5079 84.7148 80.2889C85.0958 74.1149 86.0218 68.0289 86.1658 61.8349C86.2958 56.2559 86.1388 50.6789 86.1158 45.0999C86.0768 35.4329 86.1458 25.7549 85.6928 16.0959C85.3278 8.30886 88.3168 -1.33712 98.9038 1.20988C105.17 2.71688 108.275 9.21187 109.031 15.0619C109.912 21.8779 111.011 28.8959 110.837 35.7809C110.689 41.6279 110.663 47.3949 110.974 53.2439C111.564 64.3319 113.723 75.4499 113.928 86.5099C114.1 95.8369 114.152 105.152 114.539 114.478C114.721 118.866 114.964 123.246 115.271 127.627C115.42 129.761 114.932 132.971 117.187 133.914C119.103 134.715 124.01 134.137 126.026 133.743C128.529 133.254 129.109 131.475 129.857 129.086C131.27 124.577 130.633 119.632 130.839 114.976C131.08 109.513 131.244 104.039 131.676 98.5859C132.663 86.1059 136.564 74.2839 137.317 61.7569C137.966 50.9679 138.454 39.8069 140.689 29.1969C141.561 25.0579 143.076 19.9099 146.929 17.5579C153.486 13.5549 159.419 19.1349 161.307 24.9769C163.78 32.6329 162.744 41.3039 162.565 49.2099C162.291 61.3369 162.228 73.4598 162.105 85.5888C161.962 99.7058 160.388 113.624 159.635 127.696C159.336 133.292 159.076 139.057 159.918 144.62C160.925 151.27 161.064 158.167 162.328 164.752C163.887 172.87 167.305 180.872 169.987 188.681C170.189 189.27 171.862 188.545 172.125 188.305C174.994 185.68 179.111 185.6 181.881 182.98C185.204 179.837 186.795 174.474 188.633 170.447C190.709 165.898 193.566 161.697 195.602 157.171C196.708 154.712 196.462 151.917 197.114 149.32C198.42 144.121 201.165 139.327 204.177 134.944C208.613 128.489 214.921 120.321 222.505 117.317C232.59 113.323 234.059 122.292 231.61 129.672C229.593 135.751 225.462 141.462 224.502 147.826C223.307 155.745 225.4 162.856 221.474 170.339C218.646 175.73 215.829 181.108 213.37 186.682C210.197 193.877 207.727 201.253 205.471 208.778C203.976 213.764 202.418 218.832 199.917 223.424C196.067 230.493 190.847 237.031 186.354 243.709C180.542 252.349 174.791 261.068 168.546 269.405C163.109 276.663 155.414 282.437 152.582 291.386C148.665 303.763 148.316 317.717 146.981 330.523C146.947 330.838 149.149 330.614 149.221 329.922Z" fill="#3276FF" fill-opacity="0.2"/>
<path d="M26.5654 172.929C26.4964 169.669 30.3384 167.024 32.6464 165.278C35.6104 163.035 38.7704 161.064 41.8954 159.057C43.1704 158.239 41.2534 157.798 40.4784 158.296C36.7994 160.658 33.0594 162.972 29.6634 165.738C27.5064 167.495 24.2504 170.075 24.3154 173.18C24.3374 174.183 26.5824 173.73 26.5654 172.929Z" fill="#3276FF" fill-opacity="0.2"/>
<path d="M8.45544 102.735C13.4734 102.291 17.9704 100.215 22.7414 98.763C24.0214 98.373 23.8614 97.632 22.5454 98.032C18.2024 99.354 13.9804 101.396 9.41744 101.8C8.80644 101.855 6.98944 102.865 8.45544 102.735Z" fill="#3276FF" fill-opacity="0.2"/>
<path d="M18.7054 131.968C23.7664 127.953 31.4084 128.189 36.2824 124.067C37.2644 123.236 35.0474 123.209 34.4824 123.687C32.1294 125.677 27.9704 126.422 25.1504 127.495C22.3024 128.578 19.3164 129.675 16.9054 131.588C15.9054 132.381 18.1304 132.424 18.7054 131.968Z" fill="#3276FF" fill-opacity="0.2"/>
<path d="M44.8409 60.25C48.1699 59.484 51.4949 59.332 54.8599 58.865C58.0299 58.424 60.9759 56.662 64.0959 56.317C64.7259 56.247 66.5089 55.175 65.0459 55.337C61.1919 55.764 57.7409 57.639 53.8239 58.095C50.7129 58.458 47.6949 58.762 44.6319 59.466C43.3059 59.77 43.5109 60.556 44.8409 60.25Z" fill="#3276FF" fill-opacity="0.2"/>
<path d="M48.1614 97.8584C53.3854 96.5834 58.6064 96.9914 63.8794 96.2594C66.4184 95.9064 71.2364 93.8944 73.5404 95.6494C74.3124 96.2374 76.2844 95.1434 75.2724 94.3724C73.4534 92.9874 70.1624 93.6134 68.2054 93.8804C61.4484 94.8034 54.3964 94.7364 47.7594 96.3564C46.3674 96.6954 46.7744 98.1974 48.1614 97.8584Z" fill="#3276FF" fill-opacity="0.2"/>
<path d="M56.7813 149.589C58.9193 141.596 70.9593 138.229 78.1743 137.909C79.4363 137.853 79.9093 136.223 78.3793 136.291C70.0523 136.661 56.9623 140.612 54.5123 149.767C54.2303 150.819 56.5213 150.558 56.7813 149.589Z" fill="#3276FF" fill-opacity="0.2"/>
<path d="M87.6981 133.539C92.0611 130.008 100.019 132.299 105.225 132.451C107.506 132.518 109.809 132.178 112.076 132.297C112.641 132.327 114.657 131.32 113.496 131.259C108.352 130.988 103.229 131.272 98.0451 130.811C93.5501 130.411 89.5991 130.396 85.9491 133.35C85.0211 134.1 87.2411 133.909 87.6981 133.539Z" fill="#3276FF" fill-opacity="0.2"/>
<path d="M87.2518 78.9703C93.6948 75.9533 102.148 78.7823 108.951 79.1503C109.743 79.1933 111.351 78.0573 109.849 77.9763C102.32 77.5683 93.6018 74.7823 86.3958 78.1573C84.9798 78.8193 86.2868 79.4223 87.2518 78.9703Z" fill="#3276FF" fill-opacity="0.2"/>
<path d="M50.7849 89.1915C54.3109 89.2615 57.8099 89.0915 61.2959 88.5335C63.9419 88.1095 66.6309 87.2555 69.3299 87.4175C69.8299 87.4475 71.8879 86.5465 70.7769 86.4795C68.7519 86.3585 66.7929 86.7275 64.8109 87.1045C60.6169 87.9015 56.5149 88.3385 52.2329 88.2535C51.7369 88.2435 49.6839 89.1695 50.7849 89.1915Z" fill="#3276FF" fill-opacity="0.2"/>
<path d="M85.416 88.5989C89.132 87.7379 93.27 88.84 97.041 88.882C101.267 88.929 106.56 86.6019 110.471 88.7169C111.328 89.1809 113.292 88.0149 112.199 87.4239C108.141 85.2289 103.546 86.9119 99.256 87.2049C94.528 87.5269 89.682 85.9809 85.006 87.0649C83.606 87.3879 84.025 88.9209 85.416 88.5989Z" fill="#3276FF" fill-opacity="0.2"/>
<path d="M86.6439 45.7053C92.4219 44.6783 97.9529 47.0893 103.717 45.6423C105.045 45.3093 104.809 44.3913 103.472 44.7273C98.0699 46.0833 92.5369 43.6803 87.0039 44.6633C86.0239 44.8363 85.0819 45.9823 86.6439 45.7053Z" fill="#3276FF" fill-opacity="0.2"/>
<path d="M137.783 54.3253C138.289 53.4673 145.48 56.3052 146.813 56.3932C151.033 56.6702 155.163 54.8063 159.291 56.3553C159.884 56.5783 161.921 55.6702 161.099 55.3622C155.17 53.1382 149.037 56.1463 142.933 53.9263C140.557 53.0623 137.39 51.5382 135.72 54.3702C135.248 55.1712 137.457 54.8783 137.783 54.3253Z" fill="#3276FF" fill-opacity="0.2"/>
<path d="M134.859 84.9003C141.21 86.0393 147.295 87.1882 153.783 86.7162C154.979 86.6292 155.568 85.1343 154.028 85.2463C147.886 85.6933 142.197 84.5923 136.186 83.5143C135.333 83.3623 133.538 84.6633 134.859 84.9003Z" fill="#3276FF" fill-opacity="0.2"/>
<path d="M128.052 132.883C132.156 131.104 138.404 132.869 142.542 133.818C146.683 134.768 150.8 135.971 154.701 137.665C155.593 138.052 157.301 136.771 156.01 136.211C150.851 133.971 145.293 132.506 139.761 131.525C135.773 130.817 130.943 129.964 127.079 131.639C125.669 132.251 126.925 133.372 128.052 132.883Z" fill="#3276FF" fill-opacity="0.2"/>
<path d="M193.967 158.489C200.835 160.009 207.711 158.276 214.542 160.612C215.537 160.952 217.172 159.521 215.825 159.06C208.825 156.666 201.773 158.367 194.73 156.809C193.595 156.559 192.487 158.161 193.967 158.489Z" fill="#3276FF" fill-opacity="0.2"/>
<path d="M171.111 184.811C165.528 177.815 157.603 175.559 148.955 177.004C148.063 177.153 146.956 178.085 148.536 177.821C156.54 176.484 163.82 179.083 168.87 185.411C169.295 185.944 171.271 185.012 171.111 184.811Z" fill="#3276FF" fill-opacity="0.2"/>
<path d="M155.273 165.552C146.672 168.073 137.24 169.545 129.255 173.796C125.246 175.93 122.099 179.247 118.223 181.614C113.21 184.676 107.829 187.087 102.867 190.242C92.8809 196.592 84.7899 206.407 77.1729 215.353C77.0849 215.456 78.9489 215.446 79.3789 214.941C86.4519 206.633 93.9769 197.543 102.994 191.291C110.384 186.168 118.92 183.033 125.944 177.347C134.281 170.598 145.38 169.128 155.441 166.18C156.718 165.806 156.584 165.167 155.273 165.552Z" fill="#3276FF" fill-opacity="0.2"/>
<path d="M30.4571 203.676C31.7071 196.2 38.1261 193.565 44.9701 192.358C54.1031 190.747 63.0881 191.628 71.9561 188.482C80.4781 185.458 88.3261 180.774 96.2001 176.399C105.204 171.397 115.016 165.675 125.586 165.358C126.481 165.331 127.937 163.946 126.432 163.991C104.886 164.638 88.3401 182.569 68.3031 188.328C56.5651 191.702 31.0991 186.644 28.2091 203.928C28.0511 204.865 30.3181 204.505 30.4571 203.676Z" fill="#3276FF" fill-opacity="0.2"/>
<path d="M54.7284 304.828C55.0374 297.639 67.6874 298.209 72.8904 297.465C77.7374 296.772 82.3684 295.506 87.0934 294.271C102.74 290.18 118.002 289.961 133.176 296.156C133.783 296.404 135.5 295.482 135.289 295.396C118.915 288.711 102.623 289.415 85.8344 293.876C77.9464 295.972 69.9614 296.628 62.0054 298.258C57.9294 299.093 52.7004 300.486 52.4874 305.43C52.4734 305.748 54.7004 305.48 54.7284 304.828Z" fill="#3276FF" fill-opacity="0.2"/>
</svg>
