<svg width="70" height="18" viewBox="0 0 70 18" fill="none" xmlns="http://www.w3.org/2000/svg">
<path d="M56.3203 17.1828V0.214844H63.0163C63.8803 0.214844 64.6963 0.302844 65.4643 0.478843C66.2323 0.638843 66.9123 0.926843 67.5043 1.34284C68.0963 1.74284 68.5603 2.29484 68.8963 2.99884C69.2323 3.70284 69.4003 4.57484 69.4003 5.61484C69.4003 6.47884 69.2483 7.23884 68.9443 7.89484C68.6403 8.55084 68.2163 9.10284 67.6723 9.55084C67.1443 9.99884 66.5123 10.3428 65.7763 10.5828L69.4963 17.1828H66.1363L62.8003 11.0628H59.3203V17.1828H56.3203ZM59.3203 8.39884H62.6083C63.1523 8.39884 63.6483 8.35884 64.0963 8.27884C64.5603 8.18284 64.9603 8.03084 65.2963 7.82284C65.6483 7.61484 65.9123 7.33484 66.0883 6.98284C66.2803 6.61484 66.3843 6.15084 66.4003 5.59084C66.4003 4.91884 66.2563 4.39084 65.9683 4.00684C65.6963 3.62284 65.2963 3.35084 64.7683 3.19084C64.2563 3.03084 63.6403 2.95084 62.9203 2.95084H59.3203V8.39884Z" fill="white"/>
<path d="M49.5234 17.1828V0.214844H52.5234V17.1828H49.5234Z" fill="white"/>
<path d="M37.1849 17.1828L30.9209 0.214844H34.1849L39.2249 14.6388L44.1929 0.214844H47.4329L41.2169 17.1828H37.1849Z" fill="white"/>
<path d="M22.1319 17.376C20.3879 17.376 18.8999 17.008 17.6679 16.272C16.4519 15.536 15.5159 14.512 14.8599 13.2C14.2199 11.888 13.8999 10.392 13.8999 8.712C13.8999 7 14.2279 5.496 14.8839 4.2C15.5399 2.888 16.4839 1.864 17.7159 1.128C18.9479 0.376 20.4359 0 22.1799 0C23.9239 0 25.4039 0.368 26.6199 1.104C27.8519 1.84 28.7959 2.864 29.4519 4.176C30.1079 5.472 30.4359 6.968 30.4359 8.664C30.4359 10.344 30.1079 11.84 29.4519 13.152C28.8119 14.464 27.8679 15.496 26.6199 16.248C25.3879 17 23.8919 17.376 22.1319 17.376ZM22.1799 14.592C23.3959 14.592 24.3879 14.312 25.1559 13.752C25.9239 13.192 26.4839 12.464 26.8359 11.568C27.2039 10.672 27.3879 9.72 27.3879 8.712C27.3879 7.944 27.2839 7.208 27.0759 6.504C26.8839 5.8 26.5719 5.168 26.1399 4.608C25.7239 4.048 25.1879 3.608 24.5319 3.288C23.8759 2.952 23.0919 2.784 22.1799 2.784C20.9799 2.784 19.9879 3.064 19.2039 3.624C18.4359 4.184 17.8679 4.912 17.4999 5.808C17.1319 6.704 16.9479 7.672 16.9479 8.712C16.9479 9.736 17.1319 10.696 17.4999 11.592C17.8679 12.488 18.4359 13.216 19.2039 13.776C19.9879 14.32 20.9799 14.592 22.1799 14.592Z" fill="white"/>
<path d="M11.9761 17.1828V0.214844H7.43866e-05V2.95084H8.97607V7.41484H1.17607V10.1028H8.97607V14.4468H7.43866e-05V17.1828H11.9761Z" fill="#3276FF"/>
</svg>